<?xml version="1.0" encoding="UTF-8"?>
<svg xmlns="http://www.w3.org/2000/svg" xmlns:xlink="http://www.w3.org/1999/xlink" width="60pt" height="60pt" viewBox="0 0 60 60" version="1.2">
<defs>
<clipPath id="clip1">
  <path d="M 0 6.414062 L 60 6.414062 L 60 53.664062 L 0 53.664062 Z M 0 6.414062 "/>
</clipPath>
<clipPath id="clip2">
  <path d="M 0 6.414062 L 60 6.414062 L 60 53.664062 L 0 53.664062 Z M 0 6.414062 "/>
</clipPath>
</defs>
<g id="surface1">
<g clip-path="url(#clip1)" clip-rule="nonzero">
<path style=" stroke:none;fill-rule:nonzero;fill:rgb(21.569824%,54.899597%,58.81958%);fill-opacity:1;" d="M 58.097656 46.453125 C 58.074219 46.429688 58.046875 46.40625 58.019531 46.386719 L 30.984375 26.621094 L 30.984375 22.121094 C 34.855469 21.636719 37.859375 18.316406 37.859375 14.300781 C 37.859375 9.953125 34.332031 6.414062 30 6.414062 C 25.667969 6.414062 22.136719 9.953125 22.136719 14.300781 C 22.136719 14.84375 22.582031 15.289062 23.121094 15.289062 C 23.664062 15.289062 24.105469 14.84375 24.105469 14.300781 C 24.105469 11.039062 26.75 8.382812 30 8.382812 C 33.25 8.382812 35.894531 11.039062 35.894531 14.300781 C 35.894531 17.5625 33.25 20.21875 30 20.21875 C 29.457031 20.21875 29.015625 20.660156 29.015625 21.203125 L 29.015625 27.121094 C 29.015625 27.4375 29.167969 27.734375 29.421875 27.917969 L 56.820312 47.953125 C 57.527344 48.613281 57.71875 49.675781 57.28125 50.550781 C 56.90625 51.300781 56.152344 51.773438 55.3125 51.773438 L 4.824219 51.773438 C 3.933594 51.773438 3.128906 51.277344 2.730469 50.472656 C 2.300781 49.617188 2.445312 48.574219 3.085938 47.863281 L 26.644531 30.773438 C 27.082031 30.453125 27.183594 29.835938 26.863281 29.394531 C 26.546875 28.953125 25.933594 28.855469 25.492188 29.171875 L 1.851562 46.316406 C 1.804688 46.355469 1.761719 46.390625 1.722656 46.4375 C 0.460938 47.75 0.164062 49.726562 0.972656 51.359375 C 1.707031 52.832031 3.179688 53.746094 4.824219 53.746094 L 55.3125 53.746094 C 56.902344 53.746094 58.328125 52.859375 59.039062 51.433594 C 59.875 49.753906 59.488281 47.707031 58.097656 46.453125 "/>
</g>
<path style=" stroke:none;fill-rule:nonzero;fill:rgb(41.569519%,9.799194%,27.059937%);fill-opacity:1;" d="M 30.984375 15.289062 L 2.484375 15.289062 C 1.945312 15.289062 1.503906 14.84375 1.503906 14.300781 C 1.503906 13.757812 1.945312 13.316406 2.484375 13.316406 L 30.984375 13.316406 C 31.523438 13.316406 31.964844 13.757812 31.964844 14.300781 C 31.964844 14.84375 31.523438 15.289062 30.984375 15.289062 "/>
<path style=" stroke:none;fill-rule:nonzero;fill:rgb(41.569519%,9.799194%,27.059937%);fill-opacity:1;" d="M 57.515625 15.289062 L 40.808594 15.289062 C 40.269531 15.289062 39.828125 14.84375 39.828125 14.300781 C 39.828125 13.757812 40.269531 13.316406 40.808594 13.316406 L 57.515625 13.316406 C 58.054688 13.316406 58.496094 13.757812 58.496094 14.300781 C 58.496094 14.84375 58.054688 15.289062 57.515625 15.289062 "/>
<g clip-path="url(#clip2)" clip-rule="nonzero">
<path style=" stroke:none;fill-rule:nonzero;fill:rgb(6.269836%,5.879211%,5.099487%);fill-opacity:1;" d="M 26.644531 30.773438 C 27.082031 30.453125 27.183594 29.835938 26.863281 29.394531 C 26.546875 28.953125 25.933594 28.855469 25.492188 29.171875 L 1.851562 46.316406 C 1.804688 46.355469 1.761719 46.390625 1.722656 46.4375 C 0.460938 47.75 0.164062 49.726562 0.972656 51.359375 C 1.707031 52.832031 3.179688 53.746094 4.824219 53.746094 L 55.3125 53.746094 C 56.902344 53.746094 58.328125 52.859375 59.039062 51.433594 C 59.875 49.753906 59.488281 47.707031 58.097656 46.453125 C 58.074219 46.429688 58.046875 46.40625 58.019531 46.386719 L 30.984375 26.621094 L 30.984375 22.121094 C 34.855469 21.636719 37.859375 18.316406 37.859375 14.300781 C 37.859375 9.953125 34.332031 6.414062 30 6.414062 C 26 6.414062 22.691406 9.429688 22.207031 13.316406 L 2.484375 13.316406 C 1.945312 13.316406 1.503906 13.757812 1.503906 14.300781 C 1.503906 14.84375 1.945312 15.289062 2.484375 15.289062 L 30.984375 15.289062 C 31.523438 15.289062 31.964844 14.84375 31.964844 14.300781 C 31.964844 13.757812 31.523438 13.316406 30.984375 13.316406 L 24.191406 13.316406 C 24.664062 10.523438 27.082031 8.382812 30 8.382812 C 33.25 8.382812 35.894531 11.039062 35.894531 14.300781 C 35.894531 17.5625 33.25 20.21875 30 20.21875 C 29.457031 20.21875 29.015625 20.660156 29.015625 21.203125 L 29.015625 27.121094 C 29.015625 27.4375 29.167969 27.734375 29.421875 27.917969 L 56.820312 47.953125 C 57.527344 48.613281 57.71875 49.675781 57.28125 50.550781 C 56.90625 51.300781 56.152344 51.773438 55.3125 51.773438 L 4.824219 51.773438 C 3.933594 51.773438 3.128906 51.277344 2.730469 50.472656 C 2.300781 49.617188 2.445312 48.574219 3.085938 47.863281 L 26.644531 30.773438 "/>
</g>
<path style=" stroke:none;fill-rule:nonzero;fill:rgb(6.269836%,5.879211%,5.099487%);fill-opacity:1;" d="M 39.828125 14.300781 C 39.828125 14.84375 40.269531 15.289062 40.808594 15.289062 L 57.515625 15.289062 C 58.054688 15.289062 58.496094 14.84375 58.496094 14.300781 C 58.496094 13.757812 58.054688 13.316406 57.515625 13.316406 L 40.808594 13.316406 C 40.269531 13.316406 39.828125 13.757812 39.828125 14.300781 "/>
</g>
</svg>
