<?xml version="1.0" encoding="UTF-8"?>
<svg xmlns="http://www.w3.org/2000/svg" xmlns:xlink="http://www.w3.org/1999/xlink" width="60pt" height="60pt" viewBox="0 0 60 60" version="1.2">
<defs>
<clipPath id="clip1">
  <path d="M 4 0 L 56.289062 0 L 56.289062 60 L 4 60 Z M 4 0 "/>
</clipPath>
</defs>
<g id="surface1">
<g clip-path="url(#clip1)" clip-rule="nonzero">
<path style=" stroke:none;fill-rule:nonzero;fill:rgb(6.269836%,5.879211%,5.099487%);fill-opacity:1;" d="M 53.246094 56.519531 C 52.421875 57.554688 51.191406 58.152344 49.863281 58.152344 L 10.277344 58.152344 C 8.949219 58.152344 7.714844 57.554688 6.894531 56.519531 C 6.070312 55.480469 5.773438 54.144531 6.078125 52.855469 L 11.527344 29.894531 C 13.378906 35.839844 18.035156 40.566406 23.945312 42.53125 C 23.945312 42.550781 23.941406 42.570312 23.941406 42.59375 C 23.941406 45.046875 26.632812 46.96875 30.070312 46.96875 C 33.507812 46.96875 36.199219 45.046875 36.199219 42.59375 C 36.199219 42.570312 36.195312 42.550781 36.195312 42.53125 C 42.105469 40.566406 46.761719 35.839844 48.613281 29.894531 L 54.0625 52.855469 C 54.367188 54.144531 54.070312 55.480469 53.246094 56.519531 Z M 34.332031 42.59375 C 34.332031 43.957031 32.382812 45.109375 30.070312 45.109375 C 27.757812 45.109375 25.804688 43.957031 25.804688 42.59375 C 25.804688 41.226562 27.757812 40.074219 30.070312 40.074219 C 32.382812 40.074219 34.332031 41.226562 34.332031 42.59375 Z M 12.667969 25.101562 L 47.472656 25.101562 L 47.5625 25.484375 C 47.03125 32.609375 42.199219 38.558594 35.648438 40.753906 C 34.691406 39.242188 32.582031 38.21875 30.070312 38.21875 C 27.558594 38.21875 25.449219 39.242188 24.492188 40.753906 C 17.941406 38.558594 13.109375 32.609375 12.578125 25.484375 Z M 16.449219 15.441406 C 16.449219 7.957031 22.558594 1.867188 30.070312 1.867188 C 37.582031 1.867188 43.691406 7.957031 43.691406 15.441406 L 43.691406 23.242188 L 16.449219 23.242188 Z M 55.878906 52.429688 L 49.441406 25.324219 C 49.464844 24.941406 49.480469 24.558594 49.480469 24.171875 C 49.480469 23.660156 49.0625 23.242188 48.546875 23.242188 C 48.488281 23.242188 48.433594 23.25 48.378906 23.257812 C 48.324219 23.25 48.269531 23.242188 48.210938 23.242188 L 45.554688 23.242188 L 45.554688 15.441406 C 45.554688 6.929688 38.609375 0.0078125 30.070312 0.0078125 C 21.53125 0.0078125 14.585938 6.929688 14.585938 15.441406 L 14.585938 23.242188 L 11.929688 23.242188 C 11.871094 23.242188 11.816406 23.25 11.761719 23.257812 C 11.707031 23.25 11.648438 23.242188 11.59375 23.242188 C 11.078125 23.242188 10.660156 23.660156 10.660156 24.171875 C 10.660156 24.558594 10.675781 24.941406 10.699219 25.324219 L 4.261719 52.429688 C 3.824219 54.273438 4.25 56.183594 5.429688 57.671875 C 6.609375 59.15625 8.375 60.011719 10.277344 60.011719 L 49.863281 60.011719 C 51.761719 60.011719 53.53125 59.15625 54.710938 57.671875 C 55.890625 56.183594 56.316406 54.273438 55.878906 52.429688 "/>
</g>
</g>
</svg>
