<?xml version="1.0" encoding="UTF-8"?>
<svg xmlns="http://www.w3.org/2000/svg" xmlns:xlink="http://www.w3.org/1999/xlink" width="60pt" height="60pt" viewBox="0 0 60 60" version="1.2">
<defs>
<clipPath id="clip1">
  <path d="M 1 3 L 60 3 L 60 56.839844 L 1 56.839844 Z M 1 3 "/>
</clipPath>
</defs>
<g id="surface1">
<g clip-path="url(#clip1)" clip-rule="nonzero">
<path style=" stroke:none;fill-rule:evenodd;fill:rgb(0%,0%,0%);fill-opacity:1;" d="M 27.128906 54.996094 C 25.621094 54.308594 23.828125 51.578125 22.21875 45.632812 C 20.566406 39.769531 18.636719 34.398438 15.527344 29.3125 C 14.992188 28.769531 14.496094 28.386719 13.960938 28.511719 L 11.972656 28.847656 C 11.195312 29.03125 10.742188 29.402344 10.746094 30.027344 C 10.304688 37.765625 10.042969 45.476562 10.535156 53.097656 L 10.238281 53.476562 L 9.433594 53.519531 C 7.835938 53.53125 7.933594 53.332031 7.613281 53.183594 C 7.839844 48.769531 7.457031 44.257812 6.976562 39.730469 C 6.328125 33.011719 4.589844 26.605469 1.601562 20.554688 C 1.464844 20.132812 1.578125 19.945312 1.695312 19.789062 C -0.03125 15.414062 4.316406 7.730469 9.738281 4.378906 C 9.945312 4.15625 10.054688 4.035156 10.148438 3.925781 C 10.046875 3.023438 27.710938 28.082031 26.410156 27.160156 C 28.011719 30.226562 29.085938 33.289062 30.09375 36.355469 C 31.664062 39.355469 34.589844 40.769531 39.28125 40.109375 C 42.117188 39.9375 44.953125 42.21875 47.707031 43.398438 C 52.765625 45.5 57.53125 47.542969 59.097656 48.921875 C 59.945312 50.019531 59.816406 51.160156 59.097656 51.960938 C 58.9375 52.574219 58.515625 52.929688 57.910156 53.097656 C 52.4375 54.753906 46.574219 55.492188 40.722656 56.261719 C 33.683594 56.800781 29.484375 56.25 27.136719 55 Z M 27.128906 54.996094 "/>
</g>
</g>
</svg>
